<svg width="26" height="25" viewBox="0 0 26 25" fill="none" xmlns="http://www.w3.org/2000/svg">
<path d="M16.9661 0.811587C10.4974 -1.64123 3.27647 1.66256 0.819356 8.06992C-1.63775 14.4773 1.67182 21.7356 8.09039 24.1884C14.509 26.6412 21.78 23.3374 24.2371 16.9301C26.6942 10.5227 23.3846 3.2644 16.9661 0.811587ZM15.7626 3.96521C17.9188 4.76612 19.5736 6.3179 20.5765 8.17003L12.1521 5.01641C9.94576 4.16544 7.48865 5.31676 6.63619 7.51928C5.78372 9.72181 6.93706 12.1746 9.14344 13.0256L14.7597 15.128C15.211 15.2782 15.4617 15.8288 15.2611 16.2793C15.1107 16.7299 14.5591 16.9801 14.1078 16.7799L3.4269 12.7753C3.37676 11.624 3.57734 10.4226 4.02864 9.27129C5.78372 4.5659 11.049 2.2132 15.7626 3.96521ZM9.29388 21.0348C7.13764 20.2339 5.48285 18.6821 4.47995 16.83L12.9043 19.9836C15.1107 20.8346 17.5678 19.6832 18.4203 17.4807C19.2728 15.2782 18.1194 12.8254 15.913 11.9744L10.2968 9.87198C9.84547 9.72181 9.59475 9.17118 9.79533 8.72066C9.99591 8.27015 10.4974 8.01986 10.9487 8.22009L21.6296 12.2247C21.6797 13.376 21.4791 14.5774 21.0278 15.7287C19.2728 20.4341 14.0075 22.7868 9.29388 21.0348Z" fill="#FF3B30"/>
</svg>
