<svg width="12" height="14" viewBox="0 0 12 14" fill="none" xmlns="http://www.w3.org/2000/svg">
<path d="M3.66139 8.92891C3.66139 8.92891 3.66139 10.9813 6.16864 10.9813C7.87358 10.9813 8.32488 10.1804 8.32488 9.5296C8.32488 7.02673 0.80312 8.97897 0.80312 4.42374C0.80312 2.37139 2.75878 0.669434 5.91792 0.669434C10.4811 0.669434 11.133 3.27242 11.133 4.42374H8.1243C8.1243 4.42374 8.1243 2.8219 5.96806 2.8219C4.71444 2.8219 4.01241 3.47265 4.01241 4.17345C4.01241 6.22581 11.5342 4.72409 11.5342 9.1792C11.5342 11.4318 9.57851 13.1337 6.16864 13.1337C1.50515 13.1337 0.602539 10.2805 0.602539 8.92891H3.66139Z" fill="#333333"/>
</svg>
